<?xml version="1.0" encoding="utf-8"?>
<!-- Generator: Adobe Illustrator 24.1.1, SVG Export Plug-In . SVG Version: 6.00 Build 0)  -->
<svg version="1.1" id="Layer_1" xmlns="http://www.w3.org/2000/svg" xmlns:xlink="http://www.w3.org/1999/xlink" x="0px" y="0px"
	 viewBox="0 0 512 512" style="enable-background:new 0 0 512 512;" xml:space="preserve">
<style type="text/css">
	.st0{fill-rule:evenodd;clip-rule:evenodd;fill:#010101;}
</style>
<g>
	<path class="st0" d="M256,213.3c23.5,0,42.7,19.2,42.7,42.7s-19.2,42.7-42.7,42.7s-42.7-19.2-42.7-42.7S232.5,213.3,256,213.3z
		 M256,192c-34.1,0-64,27.7-64,64s27.7,64,64,64s64-27.7,64-64S292.3,192,256,192z"/>
	<path class="st0" d="M362.7,149.3v213.3H149.3V149.3H362.7z M384,128H128v256h256V128z"/>
	<path class="st0" d="M234.7,106.7h-21.3V44.8c0-12.8-10.7-23.5-23.5-23.5c-12.8,0-19.2,12.8-19.2,23.5v61.9h-21.3V44.8
		c0-25.6,17.1-44.8,40.5-44.8h2.1c23.5,0,42.7,21.3,42.7,44.8V106.7z"/>
	<path class="st0" d="M362.7,106.7h-21.3V44.8c0-12.8-10.7-23.5-23.5-23.5c-12.8,0-19.2,12.8-19.2,23.5v61.9h-21.3V44.8
		c0-25.6,17.1-44.8,40.5-44.8h2.1c23.5,0,42.7,21.3,42.7,44.8V106.7z"/>
	<path class="st0" d="M322.1,512C322.1,512,320,512,322.1,512c-25.6,0-44.8-21.3-44.8-44.8v-61.9h21.3v61.9
		c0,12.8,10.7,23.5,23.5,23.5c14.9,0,19.2-12.8,19.2-23.5v-61.9h21.3v61.9C362.7,492.8,345.6,512,322.1,512z"/>
	<path class="st0" d="M194.1,512C194.1,512,192,512,194.1,512c-25.6,0-44.8-21.3-44.8-44.8v-61.9h21.3v61.9
		c0,12.8,10.7,23.5,23.5,23.5c14.9,0,19.2-12.8,19.2-23.5v-61.9h21.3v61.9C234.7,492.8,217.6,512,194.1,512z"/>
	<path class="st0" d="M106.7,362.7H44.8C19.2,362.7,0,345.6,0,322.1s21.3-42.7,44.8-42.7h61.9v21.3H44.8
		c-12.8-2.1-23.5,8.5-23.5,21.3c0,12.8,12.8,19.2,23.5,19.2h61.9V362.7z"/>
	<path class="st0" d="M106.7,234.7H44.8C19.2,234.7,0,217.6,0,194.1s21.3-42.7,44.8-42.7h61.9v21.3H44.8
		c-12.8-2.1-23.5,8.5-23.5,21.3c0,12.8,12.8,19.2,23.5,19.2h61.9V234.7z"/>
	<path class="st0" d="M467.2,234.7h-61.9v-21.3h61.9c12.8,0,23.5-8.5,23.5-21.3c0-14.9-12.8-21.3-23.5-21.3h-61.9v-21.3h61.9
		c25.6,0,44.8,17.1,44.8,40.5C512,215.5,490.7,234.7,467.2,234.7z"/>
	<path class="st0" d="M467.2,362.7h-61.9v-21.3h61.9c12.8,0,23.5-10.7,23.5-23.5c0-14.9-12.8-19.2-23.5-19.2h-61.9v-21.3h61.9
		c25.6,0,44.8,17.1,44.8,40.5C512,343.5,490.7,362.7,467.2,362.7z"/>
</g>
</svg>
